# xmcd
#
# Track frame offsets:
#	150
#	11523
#	22631
#	38756
#	53547
#	76087
#	88869
#	102684
#	121124
#	138135
#	153576
#	169479
#	190111
#	203059
#	221594
#	237509
#
# Disc length: 3384 seconds
#
# Revision: 0
# Processed by: cddbd v1.5.2PL0 Copyright (c) Steve Scherf et al.
# Submitted via: dBpowerAMP V4.0
#
DISCID=c80d3610
DTITLE=Patty Loveless - 16 Biggest Hits
DYEAR=2007
DGENRE=Country
TTITLE0=Timber, I'm Falling In Love
TTITLE1=Chains
TTITLE2=Blame It On Your Heart
TTITLE3=You Will
TTITLE4=How Can I Help You Say Goodbye
TTITLE5=I Try To Think About Elvis
TTITLE6=Here I Am
TTITLE7=You Don't Even Know Who I Am
TTITLE8=Halfway Down
TTITLE9=You Can Feel Bad
TTITLE10=A Thousand Times A Day
TTITLE11=Lonely Too Long
TTITLE12=She Drew A Broken Heart
TTITLE13=You Don't Sem To Miss Me - With George Jones
TTITLE14=That's The Kind Of Mood I'm In
TTITLE15=Lovin' All Night
EXTD=
EXTT0=
EXTT1=
EXTT2=
EXTT3=
EXTT4=
EXTT5=
EXTT6=
EXTT7=
EXTT8=
EXTT9=
EXTT10=
EXTT11=
EXTT12=
EXTT13=
EXTT14=
EXTT15=
PLAYORDER=
